<svg width="50" height="51" viewBox="0 0 50 51" fill="none" xmlns="http://www.w3.org/2000/svg">
<g clip-path="url(#clip0_20627_241)">
<path d="M33.9282 15.1543C33.3889 15.1543 32.9512 15.5909 32.9512 16.131C32.9512 16.6707 33.3889 17.108 33.9282 17.108C34.4687 17.108 34.9053 16.6707 34.9053 16.131C34.9053 15.5909 34.4687 15.1543 33.9282 15.1543Z" fill="#111111"/>
<path d="M16.1802 32.9023C15.6397 32.9023 15.2031 33.3401 15.2031 33.8794C15.2031 34.4198 15.6397 34.8565 16.1802 34.8565C16.7195 34.8565 17.1572 34.4198 17.1572 33.8794C17.1572 33.3401 16.7195 32.9023 16.1802 32.9023Z" fill="#111111"/>
<path d="M48.8439 6.0091C48.5142 5.93241 48.1678 6.03199 47.9297 6.27237L43.8803 10.3538H41.939L39.802 8.13966V6.17126L43.7933 2.12036C44.0295 1.88074 44.1257 1.53621 44.0475 1.20846C43.9696 0.881088 43.7285 0.617056 43.4095 0.50946C42.4068 0.171408 41.3575 9.26672e-05 40.2903 9.26672e-05C37.109 9.26672e-05 34.2188 1.48355 32.3606 4.07007C30.6215 6.49137 30.0855 9.45868 30.8535 12.2985L23.6587 19.4934L11.6719 7.4792V5.12123C11.6719 4.77822 11.4918 4.46001 11.1977 4.28374L4.29126 0.139358C3.90666 -0.0914789 3.41485 -0.0308127 3.09816 0.286254L0.335752 3.04828C0.0190673 3.36535 -0.0415988 3.85716 0.188856 4.24177L4.33247 11.1482C4.50875 11.4423 4.82658 11.6221 5.16959 11.6224L7.52679 11.6232L19.5147 23.6374L12.3473 30.8048C9.50741 30.0371 6.53858 30.5739 4.11613 32.3142C1.53114 34.1712 0.0488281 37.0606 0.0488281 40.242C0.0488281 41.3088 0.220143 42.3584 0.558195 43.3608C0.666173 43.6817 0.932876 43.9239 1.26253 44.0002C1.59257 44.0769 1.93864 43.9773 2.1771 43.737L6.2261 39.6559H8.1781L10.4021 41.88V43.832L6.3211 47.881C6.08073 48.1194 5.98114 48.4655 6.05783 48.7955C6.13414 49.1252 6.37643 49.3919 6.69731 49.4999C7.69964 49.8379 8.74928 50.0092 9.81608 50.0092C12.9974 50.0092 15.8865 48.5266 17.7439 45.9416C19.4841 43.5191 20.021 40.5507 19.2533 37.7108L25.0097 31.9544L26.3284 33.3867L25.7232 33.9915C25.3417 34.373 25.3417 34.9915 25.7232 35.3731C26.1048 35.7542 26.7229 35.7542 27.1048 35.3731L27.6527 34.8251L40.0248 48.264C40.034 48.274 40.0435 48.2835 40.053 48.293C42.3423 50.5823 46.0513 50.5831 48.3418 48.2927C50.6257 46.0076 50.6257 42.2894 48.3418 40.0043C48.3319 39.9944 48.3216 39.9848 48.3113 39.9753L34.8514 27.6269L35.3932 27.0851C35.7747 26.7039 35.7747 26.0854 35.3932 25.7039C35.0116 25.3223 34.3935 25.3223 34.0116 25.7039L33.4107 26.3052L31.9756 24.9881L37.7599 19.2038C38.5822 19.4236 39.4307 19.535 40.2903 19.535C45.6763 19.535 50.0576 15.1533 50.0576 9.76773C50.0576 8.70054 49.8863 7.65128 49.5482 6.64857C49.4403 6.32769 49.1736 6.08541 48.8439 6.0091ZM8.62336 9.9566C8.44022 9.77307 8.19183 9.67959 7.93238 9.67959L5.72322 9.67883L2.25647 3.89074L3.94024 2.20697L9.71841 5.67448V7.88364C9.71841 8.14233 9.82104 8.39034 10.0038 8.57348L22.2775 20.875L20.8959 22.2562L8.62336 9.9566ZM33.4686 29.0096L46.9743 41.3996C48.483 42.9243 48.4784 45.3929 46.9602 46.9118C45.4386 48.4335 42.9753 48.438 41.4476 46.9252L29.0351 33.4424L33.4686 29.0096ZM32.0279 27.6875L27.7107 32.004L26.3921 30.5716L30.5929 26.3704L32.0279 27.6875ZM40.2903 17.5815C39.4361 17.5815 38.5959 17.4445 37.7939 17.1743C37.4425 17.0564 37.0541 17.1473 36.7915 17.4094C31.8948 22.3062 21.3434 32.8571 17.4581 36.7428C17.1956 37.0053 17.1044 37.3937 17.2231 37.7455C18.035 40.1565 17.6466 42.7282 16.157 44.8019C14.6717 46.8695 12.3602 48.0557 9.81608 48.0557C9.5303 48.0557 9.24605 48.0401 8.96447 48.0099L12.0668 44.9316C12.2515 44.7485 12.3557 44.4989 12.3557 44.2383V41.4752C12.3557 41.2161 12.2527 40.9677 12.0695 40.7846L9.27314 37.9882C9.09 37.805 8.84161 37.702 8.58254 37.702H5.81937C5.55877 37.702 5.30924 37.8062 5.12571 37.9909L2.04776 41.0932C2.01724 40.8116 2.00197 40.5274 2.00197 40.2416C2.00197 37.6971 3.18783 35.386 5.25582 33.9007C7.32915 32.4111 9.90117 32.0223 12.3126 32.8346C12.664 32.9533 13.0524 32.8621 13.3149 32.5996C13.3687 32.5462 32.6346 13.2799 32.6483 13.2661C32.9108 13.0036 33.0016 12.6156 32.8834 12.2638C32.071 9.85281 32.4587 7.28194 33.9471 5.20975C35.4336 3.14024 37.7454 1.95362 40.29 1.95362C40.5845 1.95362 40.8772 1.97003 41.1671 2.00208L38.1293 5.08537C37.9492 5.26813 37.8484 5.51423 37.8484 5.77063V8.5338C37.8484 8.78715 37.9465 9.0302 38.1224 9.21219L40.8211 12.0086C41.005 12.1993 41.2587 12.3069 41.5239 12.3069H44.2871C44.5473 12.3069 44.7968 12.2032 44.9803 12.0181L48.0583 8.91611C48.0888 9.1977 48.1041 9.48195 48.1041 9.76773C48.1041 14.0762 44.5988 17.5815 40.2903 17.5815Z" fill="#111111"/>
<path d="M30.4736 18.2022L18.2507 30.4251C17.8696 30.8062 17.8696 31.4247 18.2507 31.8063C18.6323 32.1878 19.2508 32.1878 19.6323 31.8063L31.8552 19.5834C32.2368 19.2022 32.2368 18.5837 31.8552 18.2022C31.4737 17.8206 30.8552 17.8206 30.4736 18.2022Z" fill="#111111"/>
<path d="M42.8179 44.1494C43.1995 44.5298 43.8179 44.5298 44.1995 44.1472C44.5803 43.7652 44.5791 43.1467 44.1972 42.7659L35.393 33.99C35.011 33.6092 34.3922 33.6103 34.0118 33.9922C33.6306 34.3746 33.6317 34.9927 34.0137 35.3734L42.8179 44.1494Z" fill="#111111"/>
</g>
<defs>
<clipPath id="clip0_20627_241">
<rect width="49.9126" height="50.0103" fill="white"/>
</clipPath>
</defs>
</svg>
