<svg width="50" height="50" viewBox="0 0 50 50" fill="none" xmlns="http://www.w3.org/2000/svg">
<path d="M30.4944 37.7539H19.5077C19.0686 37.7539 18.6608 37.9914 18.4186 38.3891C18.1358 38.8523 18.1155 39.4422 18.3663 39.9281L18.8999 40.9617C19.2944 41.7266 19.9913 42.1828 20.7631 42.1828H29.2405C30.0124 42.1828 30.7084 41.7266 31.1038 40.9617L31.6374 39.9281C31.8881 39.4422 31.8678 38.8531 31.585 38.3891C31.3428 37.9914 30.935 37.7539 30.4959 37.7539H30.4944ZM29.7139 40.2453C29.5944 40.4766 29.4124 40.6203 29.2397 40.6203H20.7624C20.5889 40.6203 20.4069 40.4766 20.2881 40.2453L19.8186 39.3164H30.1936L29.7139 40.2453Z" fill="#111111"/>
<path d="M11.1547 37.118C11.1391 37.1617 11.132 37.2078 11.1195 37.2523C11.0633 37.4461 11.0273 37.6477 11.0273 37.8578V40.1641V40.1656V41.2508C11.0273 42.8508 12.007 44.1977 13.3539 44.6781V47.0039C13.3539 47.793 13.9961 48.4359 14.7859 48.4359H17.7531C18.5422 48.4359 19.1852 47.7938 19.1852 47.0039V44.8789H30.8133V47.0039C30.8133 47.793 31.4555 48.4359 32.2453 48.4359H35.2125C36.0016 48.4359 36.6445 47.7938 36.6445 47.0039V44.6781C37.9914 44.1969 38.9711 42.8508 38.9711 41.2508V40.1656V40.1641V37.8578C38.9711 37.8102 38.9625 37.7648 38.9594 37.7172C38.9469 37.5109 38.9141 37.3125 38.8539 37.1477C38.8523 37.1438 38.85 37.1406 38.8492 37.1375C38.8469 37.1312 38.8461 37.1242 38.8438 37.118C38.8383 37.1023 38.8273 37.0906 38.8211 37.0766C38.7117 36.7727 38.5422 36.4953 38.3195 36.2844L37.0312 35.0281C37.2602 34.9289 37.4727 34.7828 37.6594 34.5922C38.0047 34.2219 38.1953 33.7359 38.1953 33.2242C38.1953 32.1445 37.3414 31.2664 36.2914 31.2664H35.7453C35.6031 31.2664 35.4625 31.2805 35.3234 31.3023L34.7617 28.9656C34.4711 27.7562 33.4461 26.9117 32.268 26.9117H29.6812V25.3563C29.6812 24.4445 28.9391 23.7031 28.0273 23.7031H21.843C20.9312 23.7031 20.1891 24.4445 20.1891 25.3563V26.9117H17.7344C16.5563 26.9117 15.5313 27.7562 15.2406 28.9656L14.6781 31.3031C14.5391 31.2813 14.3984 31.2672 14.2563 31.2672H13.7102C12.6602 31.2672 11.8062 32.1461 11.8062 33.225C11.8062 33.7367 11.9969 34.2227 12.3547 34.6063C12.5344 34.7898 12.743 34.932 12.9695 35.0297L11.6898 36.2773C11.4414 36.5133 11.2539 36.8141 11.157 37.1188L11.1547 37.118ZM12.5898 38.1664H15.0406C15.7023 38.1664 16.2516 38.6953 16.3453 39.3828H12.5898V38.1664ZM17.6219 46.8742H14.9164V44.8805H17.6219V46.8742ZM35.0805 46.8742H32.375V44.8805H35.0805V46.8742ZM35.5773 43.318H14.4195C13.4102 43.318 12.5898 42.3906 12.5898 41.2516V40.9453H16.5945C17.3266 40.9453 17.9219 40.3383 17.9219 39.5914C17.9219 37.9438 16.6297 36.6039 15.0406 36.6039H13.5898L15.018 35.2117C16.332 35.3297 21.0664 35.7289 24.9992 35.7289C28.932 35.7289 33.6664 35.3297 34.9805 35.2117L36.4086 36.6039H34.957C33.368 36.6039 32.0758 37.9438 32.0758 39.5914C32.0758 40.3383 32.6711 40.9453 33.4031 40.9453H37.4078V41.2516C37.4078 42.3906 36.5867 43.318 35.5773 43.318ZM37.407 38.1664V39.3828H33.6516C33.7453 38.6953 34.2945 38.1664 34.9562 38.1664H37.407ZM35.743 32.8289H36.2891C36.4773 32.8289 36.6305 33.0063 36.6305 33.2242C36.6305 33.3391 36.5891 33.4461 36.5273 33.5133C36.4797 33.5617 36.4 33.6195 36.2891 33.6195H35.8813L35.6898 32.8297C35.707 32.8297 35.725 32.8289 35.743 32.8289ZM21.7492 25.3563C21.7492 25.3063 21.7898 25.2656 21.8406 25.2656H28.025C28.075 25.2656 28.1164 25.3063 28.1164 25.3563V26.9117H21.75L21.7492 25.3563ZM17.732 28.4742H32.2656C32.7187 28.4742 33.1187 28.8266 33.2406 29.3312L34.0023 32.4984C34.0023 32.4984 34.0023 32.5 34.0023 32.5008L34.2945 33.7047C32.5234 33.8555 28.4422 34.168 24.9992 34.168C21.5562 34.168 17.475 33.8555 15.7039 33.7047L15.9961 32.5008C15.9961 32.5008 15.9961 32.4992 15.9961 32.4984L16.7578 29.3312C16.8789 28.8266 17.2797 28.475 17.7328 28.475L17.732 28.4742ZM13.7078 32.8297H14.2539C14.2719 32.8297 14.2898 32.8297 14.307 32.8305L14.1156 33.6203H13.7078C13.5969 33.6203 13.5172 33.5625 13.482 33.5273C13.407 33.4469 13.3664 33.3398 13.3664 33.225C13.3664 33.007 13.5195 32.8297 13.7078 32.8297Z" fill="#111111"/>
<path d="M8.44015 11.9797L8.02765 14.3828C7.95265 14.8234 8.13 15.2602 8.49171 15.5227C8.85265 15.7852 9.32375 15.8195 9.71906 15.6117L11.8769 14.4766L14.0355 15.6117C14.2073 15.7023 14.3933 15.7469 14.5792 15.7469C14.8206 15.7469 15.0597 15.6711 15.2636 15.5227C15.6253 15.2594 15.8027 14.8227 15.7269 14.3828L15.3152 11.9797L17.0612 10.2773C17.3808 9.96484 17.4941 9.50703 17.355 9.08203C17.2167 8.65781 16.8558 8.35313 16.4144 8.28906L14.0019 7.93828L12.9222 5.75156C12.7245 5.35078 12.3237 5.10156 11.8769 5.10156C11.43 5.10156 11.0292 5.35078 10.8308 5.75156L9.75187 7.9375L7.33937 8.28828C6.89718 8.35234 6.53625 8.65625 6.39796 9.08125C6.25968 9.50625 6.37218 9.96406 6.6925 10.2773L8.43859 11.9789L8.44015 11.9797ZM10.1847 9.45469C10.5644 9.39922 10.8925 9.16094 11.0628 8.81641L11.8784 7.16406L12.6941 8.81641C12.8636 9.16016 13.1917 9.39922 13.5722 9.45469L15.3964 9.71953L14.0777 11.0047C13.8011 11.2734 13.6753 11.6602 13.7409 12.0375L14.0527 13.8547L12.4198 12.9961C12.2503 12.907 12.0644 12.8633 11.8784 12.8633C11.6925 12.8633 11.5058 12.9078 11.3355 12.9969L9.70421 13.8547L10.0159 12.0375C10.0808 11.6594 9.955 11.2734 9.68 11.0055L8.36046 9.71953L10.1847 9.45469Z" fill="#111111"/>
<path d="M21.4978 11.9785L21.0853 14.3816C21.0103 14.8223 21.1877 15.2598 21.5502 15.5223C21.7549 15.6707 21.9931 15.7457 22.2338 15.7457C22.4189 15.7457 22.6049 15.7012 22.7767 15.6105L24.9353 14.4754L27.0931 15.6105C27.4877 15.8184 27.9588 15.7848 28.3213 15.5215C28.683 15.259 28.8603 14.8215 28.7853 14.3816L28.3728 11.9785L30.1189 10.2762C30.4392 9.96445 30.5517 9.50586 30.4135 9.08086C30.2752 8.65586 29.9142 8.35195 29.472 8.28711L27.0595 7.93633L25.9799 5.74961C25.7822 5.34883 25.3814 5.09961 24.9345 5.09961C24.4877 5.09961 24.0869 5.34883 23.89 5.74961L22.8103 7.93633L20.3978 8.28711C19.9556 8.35117 19.5947 8.65508 19.4564 9.08008C19.3181 9.50508 19.4314 9.96367 19.751 10.2754L21.497 11.9777L21.4978 11.9785ZM23.2431 9.45352C23.622 9.39805 23.9502 9.15977 24.1197 8.81602L24.9353 7.16289L25.751 8.81523C25.9205 9.15898 26.2486 9.39805 26.6291 9.45352L28.4533 9.71836L27.1345 11.0035C26.8588 11.2715 26.733 11.6574 26.7978 12.0363L27.1095 13.8535L25.4767 12.9949C25.3072 12.9059 25.1213 12.8613 24.9353 12.8613C24.7494 12.8613 24.5627 12.9059 24.3931 12.9949L22.7619 13.8527L23.0736 12.0355C23.1385 11.6566 23.0127 11.2707 22.7385 11.0043L21.4189 9.71758L23.2439 9.45195L23.2431 9.45352Z" fill="#111111"/>
<path d="M34.5533 11.9797L34.1408 14.3828C34.0658 14.8234 34.2431 15.2602 34.6049 15.5227C34.9666 15.7852 35.4377 15.8195 35.833 15.6117L37.9908 14.4766L40.1486 15.6109C40.3205 15.7016 40.5072 15.7461 40.6924 15.7461C40.933 15.7461 41.172 15.6703 41.376 15.5227C41.7377 15.2602 41.9158 14.8227 41.8408 14.382L41.4283 11.9789L43.1744 10.2766C43.4947 9.96484 43.608 9.50625 43.4689 9.08125C43.3306 8.65625 42.9697 8.35234 42.5275 8.28828L40.115 7.9375L39.0361 5.75156C38.8385 5.35078 38.4377 5.10156 37.99 5.10156C37.5424 5.10156 37.1424 5.35078 36.9447 5.75156L35.865 7.93828L33.4525 8.28906C33.0103 8.35391 32.6494 8.65703 32.5111 9.08281C32.3728 9.50781 32.4861 9.96562 32.8056 10.2781L34.5517 11.9805L34.5533 11.9797ZM36.2986 9.45469C36.6775 9.39922 37.0056 9.16094 37.1752 8.81719L37.9908 7.16406L38.8064 8.81641C38.976 9.16016 39.3041 9.39922 39.6845 9.45469L41.5088 9.71953L40.19 11.0047C39.9142 11.2727 39.7885 11.6586 39.8533 12.0375L40.165 13.8547L38.5338 12.9969C38.1947 12.8188 37.7892 12.818 37.4486 12.9969L35.8174 13.8547L36.1291 12.0375C36.1939 11.6586 36.0681 11.2727 35.7939 11.0062L34.4744 9.71953L36.2994 9.45391L36.2986 9.45469Z" fill="#111111"/>
<path d="M4.65 20.1H33.443V23.5383C33.443 23.8523 33.6312 24.1367 33.9211 24.2586C34.0187 24.3 34.1219 24.3195 34.2242 24.3195C34.4242 24.3195 34.6219 24.2422 34.7711 24.0961L38.8531 20.1H45.3508C47.0531 20.1 48.4383 18.7156 48.4383 17.0125V4.65C48.4383 2.94766 47.0531 1.5625 45.3508 1.5625H4.65C2.94766 1.5625 1.5625 2.94688 1.5625 4.65V17.0133C1.5625 18.7156 2.94766 20.1 4.65 20.1ZM3.125 4.65C3.125 3.80938 3.80859 3.125 4.65 3.125H45.35C46.1906 3.125 46.875 3.80859 46.875 4.65V17.0133C46.875 17.8539 46.1914 18.5383 45.35 18.5383H38.5328C38.3281 18.5383 38.132 18.6187 37.9859 18.7617L35.0047 21.6813V19.3203C35.0047 18.8891 34.6547 18.5391 34.2234 18.5391H4.65C3.80938 18.5391 3.125 17.8555 3.125 17.0141V4.65Z" fill="#111111"/>
<path d="M48.2088 28.6635L45.0994 25.5541C45.0275 25.4822 44.9408 25.4252 44.8455 25.3854C44.6541 25.3064 44.4393 25.3064 44.2486 25.3854C44.1533 25.4252 44.0666 25.4822 43.9947 25.5541L40.8854 28.6635C40.5799 28.9689 40.5799 29.4627 40.8854 29.7682C41.1908 30.0736 41.6846 30.0736 41.99 29.7682L43.7658 27.9924V43.79C43.7658 44.2213 44.1158 44.5713 44.5471 44.5713C44.9783 44.5713 45.3283 44.2213 45.3283 43.79V27.9924L47.1041 29.7682C47.2564 29.9205 47.4564 29.9971 47.6564 29.9971C47.8564 29.9971 48.0564 29.9205 48.2088 29.7682C48.5143 29.4627 48.5143 28.9689 48.2088 28.6635Z" fill="#111111"/>
<path d="M2.89629 29.7701L4.67207 27.9943V43.792C4.67207 44.2232 5.02207 44.5732 5.45332 44.5732C5.88457 44.5732 6.23457 44.2232 6.23457 43.792V27.9943L8.01035 29.7701C8.1627 29.9225 8.3627 29.999 8.5627 29.999C8.7627 29.999 8.9627 29.9225 9.11504 29.7701C9.42051 29.4646 9.42051 28.9709 9.11504 28.6654L6.00566 25.5561C5.93379 25.4842 5.84707 25.4271 5.75176 25.3873C5.56035 25.3084 5.34551 25.3084 5.15488 25.3873C5.05957 25.4271 4.97285 25.4842 4.90098 25.5561L1.7916 28.6654C1.48613 28.9709 1.48613 29.4646 1.7916 29.7701C2.09707 30.0756 2.59082 30.0756 2.89629 29.7701Z" fill="#111111"/>
</svg>
